<svg xmlns="http://www.w3.org/2000/svg" xmlns:xlink="http://www.w3.org/1999/xlink" width="762" zoomAndPan="magnify" viewBox="0 0 571.5 571.499966" height="762" preserveAspectRatio="xMidYMid meet" version="1.0"><defs><clipPath id="a574a442be"><path d="M 40.273438 40.273438 L 531.09375 40.273438 L 531.09375 531.09375 L 40.273438 531.09375 Z M 40.273438 40.273438 " clip-rule="nonzero"/></clipPath></defs><path fill="#000000" d="M 60.859375 262.488281 C 60.859375 264.636719 62.605469 266.382812 64.757812 266.382812 L 114.277344 266.382812 C 116.429688 266.382812 118.171875 264.636719 118.171875 262.488281 C 118.171875 260.335938 116.429688 258.589844 114.277344 258.589844 L 64.757812 258.589844 C 62.605469 258.589844 60.859375 260.335938 60.859375 262.488281 Z M 60.859375 262.488281 " fill-opacity="1" fill-rule="nonzero"/><path fill="#000000" d="M 114.277344 281.789062 L 64.757812 281.789062 C 62.605469 281.789062 60.859375 283.53125 60.859375 285.683594 C 60.859375 287.835938 62.605469 289.578125 64.757812 289.578125 L 114.277344 289.578125 C 116.429688 289.578125 118.171875 287.835938 118.171875 285.683594 C 118.171875 283.53125 116.429688 281.789062 114.277344 281.789062 Z M 114.277344 281.789062 " fill-opacity="1" fill-rule="nonzero"/><path fill="#000000" d="M 114.277344 304.984375 L 64.757812 304.984375 C 62.605469 304.984375 60.859375 306.730469 60.859375 308.882812 C 60.859375 311.03125 62.605469 312.777344 64.757812 312.777344 L 114.277344 312.777344 C 116.429688 312.777344 118.171875 311.03125 118.171875 308.882812 C 118.171875 306.730469 116.429688 304.984375 114.277344 304.984375 Z M 114.277344 304.984375 " fill-opacity="1" fill-rule="nonzero"/><path fill="#000000" d="M 60.859375 435.199219 C 60.859375 437.351562 62.605469 439.09375 64.757812 439.09375 L 114.277344 439.09375 C 116.429688 439.09375 118.171875 437.351562 118.171875 435.199219 C 118.171875 433.046875 116.429688 431.304688 114.277344 431.304688 L 64.757812 431.304688 C 62.605469 431.304688 60.859375 433.046875 60.859375 435.199219 Z M 60.859375 435.199219 " fill-opacity="1" fill-rule="nonzero"/><path fill="#000000" d="M 114.277344 454.5 L 64.757812 454.5 C 62.605469 454.5 60.859375 456.246094 60.859375 458.394531 C 60.859375 460.546875 62.605469 462.292969 64.757812 462.292969 L 114.277344 462.292969 C 116.429688 462.292969 118.171875 460.546875 118.171875 458.394531 C 118.171875 456.246094 116.429688 454.5 114.277344 454.5 Z M 114.277344 454.5 " fill-opacity="1" fill-rule="nonzero"/><path fill="#000000" d="M 114.277344 477.699219 L 64.757812 477.699219 C 62.605469 477.699219 60.859375 479.441406 60.859375 481.59375 C 60.859375 483.746094 62.605469 485.488281 64.757812 485.488281 L 114.277344 485.488281 C 116.429688 485.488281 118.171875 483.746094 118.171875 481.59375 C 118.171875 479.441406 116.429688 477.699219 114.277344 477.699219 Z M 114.277344 477.699219 " fill-opacity="1" fill-rule="nonzero"/><path fill="#000000" d="M 60.859375 89.773438 C 60.859375 91.925781 62.605469 93.667969 64.757812 93.667969 L 114.277344 93.667969 C 116.429688 93.667969 118.171875 91.925781 118.171875 89.773438 C 118.171875 87.625 116.429688 85.878906 114.277344 85.878906 L 64.757812 85.878906 C 62.605469 85.878906 60.859375 87.625 60.859375 89.773438 Z M 60.859375 89.773438 " fill-opacity="1" fill-rule="nonzero"/><path fill="#000000" d="M 114.277344 109.078125 L 64.757812 109.078125 C 62.605469 109.078125 60.859375 110.820312 60.859375 112.972656 C 60.859375 115.121094 62.605469 116.867188 64.757812 116.867188 L 114.277344 116.867188 C 116.429688 116.867188 118.171875 115.121094 118.171875 112.972656 C 118.171875 110.820312 116.429688 109.078125 114.277344 109.078125 Z M 114.277344 109.078125 " fill-opacity="1" fill-rule="nonzero"/><path fill="#000000" d="M 114.277344 132.273438 L 64.757812 132.273438 C 62.605469 132.273438 60.859375 134.015625 60.859375 136.167969 C 60.859375 138.320312 62.605469 140.0625 64.757812 140.0625 L 114.277344 140.0625 C 116.429688 140.0625 118.171875 138.320312 118.171875 136.167969 C 118.171875 134.015625 116.429688 132.273438 114.277344 132.273438 Z M 114.277344 132.273438 " fill-opacity="1" fill-rule="nonzero"/><path fill="#000000" d="M 353.550781 258.484375 C 355.703125 258.484375 357.445312 256.738281 357.445312 254.589844 L 357.445312 207.335938 L 404.699219 207.335938 C 406.847656 207.335938 408.59375 205.59375 408.59375 203.441406 C 408.59375 173.09375 383.902344 148.398438 353.550781 148.398438 C 323.207031 148.398438 298.519531 173.089844 298.519531 203.441406 C 298.519531 233.792969 323.207031 258.484375 353.550781 258.484375 Z M 353.550781 258.484375 " fill-opacity="1" fill-rule="nonzero"/><path fill="#000000" d="M 365.296875 220.144531 L 365.296875 271.28125 C 365.296875 273.433594 367.039062 275.175781 369.191406 275.175781 C 399.542969 275.175781 424.234375 250.488281 424.234375 220.144531 C 424.234375 217.992188 422.488281 216.25 420.339844 216.25 L 369.191406 216.25 C 367.039062 216.25 365.296875 217.992188 365.296875 220.144531 Z M 365.296875 220.144531 " fill-opacity="1" fill-rule="nonzero"/><path fill="#000000" d="M 413.414062 174.988281 L 470.734375 174.988281 C 472.886719 174.988281 474.628906 173.242188 474.628906 171.089844 C 474.628906 168.941406 472.886719 167.195312 470.734375 167.195312 L 413.414062 167.195312 C 411.261719 167.195312 409.519531 168.941406 409.519531 171.089844 C 409.519531 173.242188 411.261719 174.988281 413.414062 174.988281 Z M 413.414062 174.988281 " fill-opacity="1" fill-rule="nonzero"/><path fill="#000000" d="M 470.734375 199.011719 C 472.886719 199.011719 474.628906 197.265625 474.628906 195.117188 C 474.628906 192.964844 472.886719 191.21875 470.734375 191.21875 L 423.054688 191.21875 C 420.902344 191.21875 419.160156 192.964844 419.160156 195.117188 C 419.160156 197.265625 420.902344 199.011719 423.054688 199.011719 Z M 470.734375 199.011719 " fill-opacity="1" fill-rule="nonzero"/><path fill="#000000" d="M 302.414062 301.265625 L 344 301.265625 C 346.148438 301.265625 347.894531 299.519531 347.894531 297.371094 L 347.894531 273.996094 C 347.894531 271.847656 346.148438 270.101562 344 270.101562 L 302.414062 270.101562 C 300.261719 270.101562 298.519531 271.847656 298.519531 273.996094 L 298.519531 297.371094 C 298.519531 299.519531 300.261719 301.265625 302.414062 301.265625 Z M 306.308594 277.894531 L 340.101562 277.894531 L 340.101562 293.476562 L 306.308594 293.476562 Z M 306.308594 277.894531 " fill-opacity="1" fill-rule="nonzero"/><path fill="#000000" d="M 471.386719 385.398438 L 464.511719 385.398438 L 464.511719 290.019531 C 464.511719 287.867188 462.769531 286.121094 460.617188 286.121094 C 458.464844 286.121094 456.722656 287.867188 456.722656 290.019531 L 456.722656 385.394531 L 446.398438 385.394531 L 446.398438 300.457031 C 446.398438 298.304688 444.65625 296.5625 442.503906 296.5625 C 440.351562 296.5625 438.609375 298.304688 438.609375 300.457031 L 438.609375 385.394531 L 428.285156 385.394531 L 428.285156 344.339844 C 428.285156 342.1875 426.539062 340.445312 424.390625 340.445312 C 422.238281 340.445312 420.492188 342.1875 420.492188 344.339844 L 420.492188 385.394531 L 410.171875 385.394531 L 410.171875 320.03125 C 410.171875 317.878906 408.425781 316.136719 406.277344 316.136719 C 404.125 316.136719 402.378906 317.878906 402.378906 320.03125 L 402.378906 385.394531 L 392.058594 385.394531 L 392.058594 307.46875 C 392.058594 305.316406 390.3125 303.574219 388.164062 303.574219 C 386.011719 303.574219 384.265625 305.316406 384.265625 307.46875 L 384.265625 385.394531 L 373.945312 385.394531 L 373.945312 349.238281 C 373.945312 347.085938 372.199219 345.339844 370.046875 345.339844 C 367.898438 345.339844 366.152344 347.085938 366.152344 349.238281 L 366.152344 385.394531 L 355.832031 385.394531 L 355.832031 313.601562 C 355.832031 311.453125 354.085938 309.707031 351.933594 309.707031 C 349.785156 309.707031 348.039062 311.453125 348.039062 313.601562 L 348.039062 385.394531 L 337.71875 385.394531 L 337.71875 320.253906 C 337.71875 318.105469 335.972656 316.359375 333.820312 316.359375 C 331.671875 316.359375 329.925781 318.105469 329.925781 320.253906 L 329.925781 385.398438 L 319.601562 385.398438 L 319.601562 360.980469 C 319.601562 358.832031 317.859375 357.085938 315.707031 357.085938 C 313.554688 357.085938 311.8125 358.832031 311.8125 360.980469 L 311.8125 385.394531 L 304.925781 385.394531 C 302.777344 385.394531 301.03125 387.140625 301.03125 389.289062 C 301.03125 391.441406 302.777344 393.1875 304.925781 393.1875 L 471.386719 393.1875 C 473.539062 393.1875 475.28125 391.441406 475.28125 389.289062 C 475.28125 387.140625 473.539062 385.398438 471.386719 385.398438 Z M 471.386719 385.398438 " fill-opacity="1" fill-rule="nonzero"/><path fill="#000000" d="M 463.167969 402.859375 L 355.558594 402.859375 C 353.40625 402.859375 351.664062 404.601562 351.664062 406.753906 C 351.664062 408.90625 353.40625 410.648438 355.558594 410.648438 L 463.167969 410.648438 C 465.320312 410.648438 467.0625 408.90625 467.0625 406.753906 C 467.0625 404.601562 465.320312 402.859375 463.167969 402.859375 Z M 463.167969 402.859375 " fill-opacity="1" fill-rule="nonzero"/><path fill="#000000" d="M 313.15625 410.648438 L 335.757812 410.648438 C 337.910156 410.648438 339.65625 408.90625 339.65625 406.753906 C 339.65625 404.601562 337.910156 402.859375 335.757812 402.859375 L 313.15625 402.859375 C 311.003906 402.859375 309.261719 404.601562 309.261719 406.753906 C 309.261719 408.90625 311.003906 410.648438 313.15625 410.648438 Z M 313.15625 410.648438 " fill-opacity="1" fill-rule="nonzero"/><path fill="#000000" d="M 463.167969 420.222656 L 313.15625 420.222656 C 311.003906 420.222656 309.261719 421.964844 309.261719 424.117188 C 309.261719 426.269531 311.003906 428.011719 313.15625 428.011719 L 463.167969 428.011719 C 465.320312 428.011719 467.0625 426.269531 467.0625 424.117188 C 467.0625 421.964844 465.320312 420.222656 463.167969 420.222656 Z M 463.167969 420.222656 " fill-opacity="1" fill-rule="nonzero"/><g clip-path="url(#a574a442be)"><path fill="#000000" d="M 527.199219 147.84375 L 514.414062 147.84375 L 514.414062 140.503906 C 514.414062 138.351562 512.667969 136.605469 510.515625 136.605469 L 494.535156 136.605469 L 494.535156 128.863281 C 494.535156 126.714844 492.792969 124.96875 490.640625 124.96875 L 285.683594 124.96875 C 283.53125 124.96875 281.789062 126.714844 281.789062 128.863281 L 281.789062 277.761719 L 264.691406 264.574219 C 262.988281 263.257812 260.542969 263.574219 259.226562 265.28125 C 257.914062 266.984375 258.230469 269.429688 259.933594 270.742188 L 274.253906 281.789062 L 202.457031 281.789062 L 202.457031 112.972656 C 202.457031 110.820312 200.714844 109.078125 198.5625 109.078125 L 138.757812 109.078125 L 138.757812 44.167969 C 138.757812 42.019531 137.015625 40.273438 134.863281 40.273438 L 73.773438 40.273438 L 73.773438 40.28125 C 72.78125 40.285156 71.800781 40.65625 71.058594 41.375 L 41.453125 70.121094 C 40.683594 70.871094 40.285156 71.882812 40.285156 72.917969 L 40.273438 72.917969 L 40.273438 181.773438 C 40.273438 183.925781 42.019531 185.667969 44.167969 185.667969 L 134.863281 185.667969 C 137.015625 185.667969 138.757812 183.925781 138.757812 181.773438 L 138.757812 116.867188 L 194.667969 116.867188 L 194.667969 281.789062 L 138.757812 281.789062 L 138.757812 216.882812 C 138.757812 214.730469 137.015625 212.984375 134.863281 212.984375 L 73.773438 212.984375 L 73.773438 212.996094 C 72.78125 212.996094 71.800781 213.367188 71.058594 214.085938 L 41.453125 242.835938 C 40.683594 243.582031 40.285156 244.597656 40.285156 245.628906 L 40.273438 245.628906 L 40.273438 354.488281 C 40.273438 356.636719 42.019531 358.382812 44.167969 358.382812 L 134.863281 358.382812 C 137.015625 358.382812 138.757812 356.636719 138.757812 354.488281 L 138.757812 289.578125 L 194.667969 289.578125 L 194.667969 454.5 L 138.757812 454.5 L 138.757812 389.59375 C 138.757812 387.441406 137.015625 385.699219 134.863281 385.699219 L 73.773438 385.699219 L 73.773438 385.707031 C 72.78125 385.707031 71.800781 386.078125 71.058594 386.800781 L 41.453125 415.546875 C 40.683594 416.292969 40.285156 417.308594 40.285156 418.34375 L 40.273438 418.34375 L 40.273438 527.199219 C 40.273438 529.351562 42.019531 531.09375 44.167969 531.09375 L 134.863281 531.09375 C 137.015625 531.09375 138.757812 529.351562 138.757812 527.199219 L 138.757812 462.292969 L 198.5625 462.292969 C 200.714844 462.292969 202.457031 460.546875 202.457031 458.394531 L 202.457031 289.578125 L 274.253906 289.578125 L 259.933594 300.625 C 258.226562 301.941406 257.914062 304.386719 259.226562 306.089844 C 259.992188 307.082031 261.148438 307.605469 262.3125 307.605469 C 263.144531 307.605469 263.980469 307.339844 264.691406 306.792969 L 281.789062 293.605469 L 281.789062 442.503906 C 281.789062 444.65625 283.53125 446.398438 285.683594 446.398438 L 490.640625 446.398438 C 492.792969 446.398438 494.535156 444.65625 494.535156 442.503906 L 494.535156 434.761719 L 510.515625 434.761719 C 512.667969 434.761719 514.414062 433.015625 514.414062 430.867188 L 514.414062 423.523438 L 527.199219 423.523438 C 529.351562 423.523438 531.09375 421.777344 531.09375 419.628906 L 531.09375 151.742188 C 531.09375 149.589844 529.351562 147.84375 527.199219 147.84375 Z M 130.96875 177.878906 L 48.066406 177.878906 L 48.066406 76.8125 L 73.773438 76.8125 C 75.925781 76.8125 77.667969 75.070312 77.667969 72.917969 L 77.667969 48.066406 L 130.96875 48.066406 Z M 130.96875 350.589844 L 48.066406 350.589844 L 48.066406 249.523438 L 73.773438 249.523438 C 75.925781 249.523438 77.667969 247.78125 77.667969 245.628906 L 77.667969 220.777344 L 130.96875 220.777344 Z M 130.96875 523.304688 L 48.066406 523.304688 L 48.066406 422.238281 L 73.773438 422.238281 C 75.925781 422.238281 77.667969 420.492188 77.667969 418.34375 L 77.667969 393.488281 L 130.96875 393.488281 Z M 486.746094 438.609375 L 289.578125 438.609375 L 289.578125 132.761719 L 486.746094 132.761719 Z M 523.304688 415.730469 L 514.414062 415.730469 L 514.414062 155.636719 L 523.304688 155.636719 Z M 523.304688 415.730469 " fill-opacity="1" fill-rule="nonzero"/></g></svg>