<svg xmlns="http://www.w3.org/2000/svg" xmlns:xlink="http://www.w3.org/1999/xlink" width="762" zoomAndPan="magnify" viewBox="0 0 571.5 571.499966" height="762" preserveAspectRatio="xMidYMid meet" version="1.0"><defs><clipPath id="a974f398e7"><path d="M 82.328125 29 L 488.472656 29 L 488.472656 551 L 82.328125 551 Z M 82.328125 29 " clip-rule="nonzero"/></clipPath></defs><path fill="#231f20" d="M 315.140625 260.070312 L 256.300781 260.070312 C 255.695312 260.003906 255.089844 260 254.488281 260.058594 C 253.882812 260.121094 253.292969 260.242188 252.710938 260.429688 C 252.132812 260.613281 251.582031 260.855469 251.054688 261.160156 C 250.527344 261.460938 250.035156 261.8125 249.585938 262.21875 C 249.132812 262.625 248.726562 263.074219 248.367188 263.5625 C 248.007812 264.054688 247.707031 264.578125 247.457031 265.132812 C 247.210938 265.6875 247.023438 266.261719 246.898438 266.859375 C 246.769531 267.453125 246.707031 268.054688 246.707031 268.664062 C 246.707031 269.269531 246.769531 269.871094 246.898438 270.464844 C 247.023438 271.0625 247.210938 271.636719 247.457031 272.191406 C 247.707031 272.746094 248.007812 273.269531 248.367188 273.761719 C 248.726562 274.25 249.132812 274.699219 249.585938 275.105469 C 250.035156 275.511719 250.527344 275.863281 251.054688 276.167969 C 251.582031 276.46875 252.132812 276.710938 252.710938 276.898438 C 253.292969 277.082031 253.882812 277.203125 254.488281 277.265625 C 255.089844 277.324219 255.695312 277.320312 256.300781 277.253906 L 315.140625 277.253906 C 315.746094 277.320312 316.351562 277.324219 316.953125 277.265625 C 317.558594 277.203125 318.148438 277.082031 318.726562 276.898438 C 319.308594 276.710938 319.859375 276.46875 320.386719 276.167969 C 320.914062 275.863281 321.402344 275.511719 321.855469 275.105469 C 322.308594 274.699219 322.714844 274.25 323.074219 273.761719 C 323.429688 273.269531 323.734375 272.746094 323.980469 272.191406 C 324.230469 271.636719 324.417969 271.0625 324.542969 270.464844 C 324.671875 269.871094 324.734375 269.269531 324.734375 268.664062 C 324.734375 268.054688 324.671875 267.453125 324.542969 266.859375 C 324.417969 266.261719 324.230469 265.6875 323.980469 265.132812 C 323.734375 264.578125 323.429688 264.054688 323.074219 263.5625 C 322.714844 263.074219 322.308594 262.625 321.855469 262.21875 C 321.402344 261.8125 320.914062 261.460938 320.386719 261.160156 C 319.859375 260.855469 319.308594 260.613281 318.726562 260.429688 C 318.148438 260.242188 317.558594 260.121094 316.953125 260.058594 C 316.347656 260 315.746094 260.003906 315.140625 260.070312 Z M 315.140625 260.070312 " fill-opacity="1" fill-rule="nonzero"/><path fill="#231f20" d="M 375.691406 317.167969 C 376.292969 317.234375 376.898438 317.238281 377.503906 317.179688 C 378.105469 317.117188 378.699219 316.996094 379.277344 316.8125 C 379.855469 316.625 380.410156 316.382812 380.9375 316.082031 C 381.460938 315.777344 381.953125 315.425781 382.40625 315.019531 C 382.859375 314.613281 383.261719 314.167969 383.621094 313.675781 C 383.980469 313.183594 384.28125 312.660156 384.53125 312.105469 C 384.777344 311.550781 384.964844 310.976562 385.09375 310.382812 C 385.21875 309.785156 385.28125 309.183594 385.28125 308.578125 C 385.28125 307.96875 385.21875 307.367188 385.09375 306.773438 C 384.964844 306.179688 384.777344 305.601562 384.53125 305.046875 C 384.28125 304.492188 383.980469 303.96875 383.621094 303.480469 C 383.261719 302.988281 382.859375 302.539062 382.40625 302.132812 C 381.953125 301.730469 381.460938 301.375 380.9375 301.074219 C 380.410156 300.769531 379.855469 300.527344 379.277344 300.34375 C 378.699219 300.15625 378.105469 300.035156 377.503906 299.976562 C 376.898438 299.914062 376.292969 299.917969 375.691406 299.984375 L 369.507812 299.984375 L 369.507812 225.917969 C 371.007812 225.558594 372.46875 225.074219 373.890625 224.472656 C 375.308594 223.867188 376.667969 223.148438 377.972656 222.320312 C 379.273438 221.488281 380.496094 220.554688 381.640625 219.519531 C 382.785156 218.484375 383.839844 217.363281 384.800781 216.152344 C 385.757812 214.941406 386.609375 213.660156 387.359375 212.308594 C 388.105469 210.957031 388.734375 209.550781 389.246094 208.09375 C 389.757812 206.636719 390.148438 205.148438 390.414062 203.625 C 390.679688 202.105469 390.816406 200.570312 390.828125 199.023438 L 390.828125 158.898438 C 390.765625 157.902344 390.554688 156.941406 390.1875 156.015625 L 390.1875 155.375 C 390.019531 154.925781 389.804688 154.5 389.546875 154.09375 L 362.472656 117.703125 C 361.640625 116.636719 360.613281 115.816406 359.394531 115.234375 C 358.175781 114.652344 356.894531 114.371094 355.542969 114.394531 L 215.898438 114.394531 C 214.53125 114.398438 213.234375 114.710938 212.015625 115.328125 C 210.796875 115.949219 209.78125 116.8125 208.96875 117.914062 L 182.53125 154.09375 C 182.253906 154.527344 182.042969 154.988281 181.890625 155.480469 L 181.890625 156.015625 C 181.472656 156.929688 181.261719 157.890625 181.253906 158.898438 L 181.253906 199.023438 C 181.261719 200.570312 181.402344 202.105469 181.667969 203.625 C 181.933594 205.148438 182.320312 206.636719 182.835938 208.09375 C 183.347656 209.550781 183.976562 210.957031 184.722656 212.308594 C 185.46875 213.660156 186.324219 214.941406 187.28125 216.152344 C 188.242188 217.363281 189.292969 218.484375 190.441406 219.519531 C 191.585938 220.554688 192.808594 221.488281 194.109375 222.320312 C 195.410156 223.148438 196.769531 223.867188 198.191406 224.472656 C 199.613281 225.074219 201.074219 225.558594 202.574219 225.917969 L 202.574219 300.625 L 196.390625 300.625 C 195.785156 300.558594 195.183594 300.554688 194.578125 300.613281 C 193.972656 300.675781 193.382812 300.796875 192.804688 300.984375 C 192.226562 301.167969 191.671875 301.410156 191.144531 301.714844 C 190.617188 302.015625 190.128906 302.371094 189.675781 302.773438 C 189.222656 303.179688 188.816406 303.628906 188.457031 304.121094 C 188.101562 304.609375 187.796875 305.132812 187.550781 305.6875 C 187.300781 306.242188 187.113281 306.820312 186.988281 307.414062 C 186.859375 308.007812 186.796875 308.609375 186.796875 309.21875 C 186.796875 309.824219 186.859375 310.425781 186.988281 311.019531 C 187.113281 311.617188 187.300781 312.191406 187.550781 312.746094 C 187.796875 313.300781 188.101562 313.824219 188.457031 314.316406 C 188.816406 314.804688 189.222656 315.253906 189.675781 315.660156 C 190.128906 316.066406 190.617188 316.417969 191.144531 316.722656 C 191.671875 317.023438 192.226562 317.265625 192.804688 317.453125 C 193.382812 317.636719 193.972656 317.757812 194.578125 317.820312 C 195.183594 317.878906 195.785156 317.875 196.390625 317.808594 Z M 198.09375 199.023438 L 198.09375 167.753906 L 219.414062 167.753906 L 219.414062 199.023438 C 219.414062 199.726562 219.347656 200.421875 219.210938 201.105469 C 219.074219 201.792969 218.871094 202.460938 218.605469 203.109375 C 218.335938 203.757812 218.007812 204.371094 217.617188 204.953125 C 217.230469 205.539062 216.789062 206.078125 216.292969 206.570312 C 215.796875 207.066406 215.261719 207.507812 214.679688 207.898438 C 214.097656 208.289062 213.480469 208.617188 212.835938 208.886719 C 212.1875 209.152344 211.523438 209.355469 210.835938 209.492188 C 210.148438 209.628906 209.457031 209.699219 208.753906 209.699219 C 208.054688 209.699219 207.363281 209.628906 206.675781 209.492188 C 205.988281 209.355469 205.324219 209.152344 204.675781 208.886719 C 204.03125 208.617188 203.414062 208.289062 202.832031 207.898438 C 202.25 207.507812 201.710938 207.066406 201.21875 206.570312 C 200.722656 206.078125 200.28125 205.539062 199.890625 204.953125 C 199.503906 204.371094 199.175781 203.757812 198.90625 203.109375 C 198.640625 202.460938 198.4375 201.792969 198.300781 201.105469 C 198.164062 200.421875 198.09375 199.726562 198.09375 199.023438 Z M 220.269531 131.363281 L 351.171875 131.363281 L 365.136719 150.574219 L 206.304688 150.574219 Z M 352.027344 199.023438 L 352.027344 167.753906 L 373.34375 167.753906 L 373.34375 199.023438 C 373.34375 199.726562 373.277344 200.421875 373.140625 201.105469 C 373.003906 201.792969 372.800781 202.460938 372.535156 203.109375 C 372.265625 203.757812 371.9375 204.371094 371.550781 204.953125 C 371.160156 205.539062 370.71875 206.078125 370.222656 206.570312 C 369.726562 207.066406 369.191406 207.507812 368.609375 207.898438 C 368.027344 208.289062 367.410156 208.617188 366.765625 208.886719 C 366.117188 209.152344 365.453125 209.355469 364.765625 209.492188 C 364.078125 209.628906 363.386719 209.699219 362.683594 209.699219 C 361.984375 209.699219 361.292969 209.628906 360.605469 209.492188 C 359.917969 209.355469 359.253906 209.152344 358.605469 208.886719 C 357.960938 208.617188 357.34375 208.289062 356.761719 207.898438 C 356.179688 207.507812 355.644531 207.066406 355.148438 206.570312 C 354.652344 206.078125 354.210938 205.539062 353.820312 204.953125 C 353.433594 204.371094 353.105469 203.757812 352.835938 203.109375 C 352.570312 202.460938 352.367188 201.792969 352.230469 201.105469 C 352.09375 200.421875 352.027344 199.726562 352.027344 199.023438 Z M 219.097656 224.851562 C 222.402344 223.480469 225.351562 221.5625 227.945312 219.089844 C 229.230469 220.324219 230.621094 221.425781 232.117188 222.394531 C 233.613281 223.363281 235.1875 224.183594 236.839844 224.851562 C 238.492188 225.519531 240.191406 226.023438 241.941406 226.363281 C 243.691406 226.703125 245.457031 226.878906 247.238281 226.878906 C 249.011719 226.882812 250.773438 226.71875 252.515625 226.378906 C 254.257812 226.039062 255.949219 225.539062 257.59375 224.871094 C 259.242188 224.203125 260.804688 223.382812 262.292969 222.410156 C 263.777344 221.4375 265.15625 220.328125 266.425781 219.089844 C 267.066406 219.707031 267.734375 220.292969 268.429688 220.84375 C 269.128906 221.398438 269.847656 221.917969 270.597656 222.398438 C 271.34375 222.882812 272.109375 223.332031 272.898438 223.742188 C 273.6875 224.152344 274.496094 224.523438 275.320312 224.855469 C 276.144531 225.1875 276.980469 225.480469 277.835938 225.734375 C 278.6875 225.984375 279.550781 226.195312 280.421875 226.367188 C 281.296875 226.535156 282.175781 226.664062 283.058594 226.746094 C 283.945312 226.832031 284.832031 226.875 285.71875 226.875 C 286.609375 226.875 287.496094 226.832031 288.382812 226.746094 C 289.265625 226.664062 290.144531 226.535156 291.019531 226.367188 C 291.890625 226.195312 292.753906 225.984375 293.605469 225.734375 C 294.457031 225.480469 295.296875 225.1875 296.121094 224.855469 C 296.945312 224.523438 297.753906 224.152344 298.542969 223.742188 C 299.332031 223.332031 300.097656 222.882812 300.84375 222.398438 C 301.589844 221.917969 302.3125 221.398438 303.007812 220.84375 C 303.707031 220.292969 304.375 219.707031 305.015625 219.089844 C 306.285156 220.328125 307.664062 221.4375 309.148438 222.410156 C 310.636719 223.382812 312.199219 224.203125 313.84375 224.871094 C 315.492188 225.539062 317.183594 226.039062 318.925781 226.378906 C 320.667969 226.71875 322.429688 226.882812 324.203125 226.878906 C 325.984375 226.878906 327.75 226.703125 329.5 226.363281 C 331.25 226.023438 332.949219 225.519531 334.601562 224.851562 C 336.253906 224.183594 337.828125 223.363281 339.324219 222.394531 C 340.820312 221.425781 342.210938 220.324219 343.496094 219.089844 C 346.089844 221.5625 349.039062 223.480469 352.34375 224.851562 L 352.34375 299.558594 L 219.097656 299.558594 Z M 334.863281 199.023438 C 334.863281 199.726562 334.792969 200.421875 334.65625 201.105469 C 334.523438 201.792969 334.320312 202.460938 334.050781 203.109375 C 333.785156 203.757812 333.457031 204.371094 333.066406 204.953125 C 332.675781 205.539062 332.234375 206.078125 331.742188 206.570312 C 331.246094 207.066406 330.707031 207.507812 330.125 207.898438 C 329.542969 208.289062 328.929688 208.617188 328.28125 208.886719 C 327.636719 209.152344 326.96875 209.355469 326.28125 209.492188 C 325.597656 209.628906 324.902344 209.699219 324.203125 209.699219 C 323.503906 209.699219 322.808594 209.628906 322.125 209.492188 C 321.4375 209.355469 320.769531 209.152344 320.125 208.886719 C 319.476562 208.617188 318.863281 208.289062 318.28125 207.898438 C 317.699219 207.507812 317.160156 207.066406 316.664062 206.570312 C 316.171875 206.078125 315.726562 205.539062 315.339844 204.953125 C 314.949219 204.371094 314.621094 203.757812 314.355469 203.109375 C 314.085938 202.460938 313.882812 201.792969 313.746094 201.105469 C 313.609375 200.421875 313.542969 199.726562 313.542969 199.023438 L 313.542969 167.753906 L 334.863281 167.753906 Z M 296.378906 199.023438 C 296.378906 199.726562 296.3125 200.421875 296.175781 201.105469 C 296.039062 201.792969 295.835938 202.460938 295.570312 203.109375 C 295.300781 203.757812 294.972656 204.371094 294.582031 204.953125 C 294.195312 205.539062 293.753906 206.078125 293.257812 206.570312 C 292.761719 207.066406 292.226562 207.507812 291.644531 207.898438 C 291.0625 208.289062 290.445312 208.617188 289.800781 208.886719 C 289.152344 209.152344 288.488281 209.355469 287.800781 209.492188 C 287.113281 209.628906 286.421875 209.699219 285.71875 209.699219 C 285.019531 209.699219 284.328125 209.628906 283.640625 209.492188 C 282.953125 209.355469 282.289062 209.152344 281.640625 208.886719 C 280.996094 208.617188 280.378906 208.289062 279.796875 207.898438 C 279.214844 207.507812 278.675781 207.066406 278.183594 206.570312 C 277.6875 206.078125 277.246094 205.539062 276.855469 204.953125 C 276.46875 204.371094 276.140625 203.757812 275.871094 203.109375 C 275.605469 202.460938 275.402344 201.792969 275.265625 201.105469 C 275.128906 200.421875 275.058594 199.726562 275.058594 199.023438 L 275.058594 167.753906 L 296.378906 167.753906 Z M 257.898438 199.023438 C 257.898438 199.726562 257.828125 200.421875 257.691406 201.105469 C 257.554688 201.792969 257.355469 202.460938 257.085938 203.109375 C 256.820312 203.757812 256.492188 204.371094 256.101562 204.953125 C 255.710938 205.539062 255.269531 206.078125 254.777344 206.570312 C 254.28125 207.066406 253.742188 207.507812 253.160156 207.898438 C 252.578125 208.289062 251.964844 208.617188 251.316406 208.886719 C 250.671875 209.152344 250.003906 209.355469 249.316406 209.492188 C 248.632812 209.628906 247.9375 209.699219 247.238281 209.699219 C 246.539062 209.699219 245.84375 209.628906 245.160156 209.492188 C 244.472656 209.355469 243.804688 209.152344 243.160156 208.886719 C 242.511719 208.617188 241.898438 208.289062 241.316406 207.898438 C 240.734375 207.507812 240.195312 207.066406 239.699219 206.570312 C 239.207031 206.078125 238.761719 205.539062 238.375 204.953125 C 237.984375 204.371094 237.65625 203.757812 237.390625 203.109375 C 237.121094 202.460938 236.917969 201.792969 236.78125 201.105469 C 236.644531 200.421875 236.578125 199.726562 236.578125 199.023438 L 236.578125 167.753906 L 257.898438 167.753906 Z M 257.898438 199.023438 " fill-opacity="1" fill-rule="nonzero"/><path fill="#231f20" d="M 285.71875 344.917969 C 285.15625 344.917969 284.601562 344.972656 284.050781 345.078125 C 283.496094 345.1875 282.960938 345.351562 282.441406 345.5625 C 281.921875 345.777344 281.425781 346.039062 280.957031 346.351562 C 280.488281 346.660156 280.050781 347.015625 279.652344 347.410156 C 279.253906 347.804688 278.894531 348.238281 278.578125 348.703125 C 278.261719 349.167969 277.992188 349.660156 277.773438 350.179688 C 277.554688 350.695312 277.386719 351.230469 277.269531 351.78125 C 277.152344 352.335938 277.09375 352.890625 277.085938 353.453125 L 277.085938 391.875 C 277.085938 392.441406 277.140625 393.003906 277.25 393.5625 C 277.363281 394.117188 277.527344 394.660156 277.742188 395.183594 C 277.960938 395.707031 278.226562 396.207031 278.542969 396.675781 C 278.855469 397.148438 279.214844 397.585938 279.613281 397.988281 C 280.015625 398.390625 280.453125 398.746094 280.921875 399.0625 C 281.394531 399.378906 281.890625 399.644531 282.417969 399.859375 C 282.941406 400.078125 283.480469 400.242188 284.035156 400.351562 C 284.59375 400.464844 285.152344 400.519531 285.71875 400.519531 C 286.289062 400.519531 286.847656 400.464844 287.40625 400.351562 C 287.960938 400.242188 288.5 400.078125 289.023438 399.859375 C 289.546875 399.644531 290.046875 399.378906 290.519531 399.0625 C 290.988281 398.746094 291.425781 398.390625 291.824219 397.988281 C 292.226562 397.585938 292.585938 397.148438 292.898438 396.675781 C 293.214844 396.207031 293.480469 395.707031 293.699219 395.183594 C 293.914062 394.660156 294.078125 394.117188 294.1875 393.5625 C 294.300781 393.003906 294.355469 392.441406 294.355469 391.875 L 294.355469 353.453125 C 294.347656 352.890625 294.285156 352.335938 294.171875 351.78125 C 294.054688 351.230469 293.886719 350.695312 293.667969 350.179688 C 293.449219 349.660156 293.179688 349.167969 292.863281 348.703125 C 292.546875 348.238281 292.1875 347.804688 291.789062 347.410156 C 291.386719 347.015625 290.953125 346.660156 290.484375 346.351562 C 290.015625 346.039062 289.519531 345.777344 289 345.5625 C 288.480469 345.351562 287.945312 345.1875 287.390625 345.078125 C 286.839844 344.972656 286.28125 344.917969 285.71875 344.917969 Z M 285.71875 344.917969 " fill-opacity="1" fill-rule="nonzero"/><g clip-path="url(#a974f398e7)"><path fill="#231f20" d="M 347.441406 471.597656 C 376.117188 470.316406 402.554688 468.183594 424.621094 465.195312 C 477.917969 458.042969 488.578125 449.292969 488.578125 438.300781 C 488.578125 431.253906 488.578125 418.128906 407.992188 409.484375 L 407.136719 409.484375 C 406.605469 409.503906 406.082031 409.574219 405.5625 409.695312 C 405.042969 409.8125 404.539062 409.976562 404.050781 410.191406 C 403.5625 410.402344 403.097656 410.65625 402.65625 410.953125 C 402.21875 411.253906 401.808594 411.589844 401.429688 411.960938 C 401.046875 412.335938 400.707031 412.742188 400.402344 413.179688 C 400.097656 413.613281 399.835938 414.074219 399.617188 414.5625 C 399.398438 415.046875 399.226562 415.546875 399.097656 416.066406 C 398.972656 416.582031 398.894531 417.105469 398.863281 417.640625 C 398.835938 418.171875 398.855469 418.699219 398.921875 419.230469 C 398.992188 419.757812 399.105469 420.273438 399.269531 420.78125 C 399.433594 421.289062 399.644531 421.777344 399.894531 422.246094 C 400.148438 422.710938 400.445312 423.152344 400.78125 423.566406 C 401.113281 423.980469 401.484375 424.359375 401.890625 424.707031 C 402.296875 425.050781 402.730469 425.355469 403.191406 425.621094 C 403.652344 425.886719 404.132812 426.105469 404.636719 426.28125 C 405.136719 426.457031 405.652344 426.585938 406.179688 426.667969 C 427.214844 428.019531 447.753906 431.964844 467.792969 438.511719 C 455.425781 444.167969 416.839844 450.679688 359.488281 453.773438 C 402.128906 387.390625 451.269531 292.730469 455.425781 198.492188 C 455.425781 195.71875 455.359375 192.945312 455.222656 190.175781 C 455.085938 187.40625 454.882812 184.640625 454.613281 181.878906 C 454.339844 179.121094 454 176.367188 453.59375 173.625 C 453.1875 170.878906 452.714844 168.148438 452.175781 165.429688 C 451.632812 162.707031 451.027344 160.003906 450.355469 157.3125 C 449.679688 154.621094 448.941406 151.949219 448.136719 149.296875 C 447.332031 146.640625 446.464844 144.007812 445.53125 141.398438 C 444.597656 138.785156 443.601562 136.199219 442.542969 133.636719 C 441.480469 131.074219 440.359375 128.539062 439.175781 126.03125 C 437.988281 123.523438 436.746094 121.046875 435.4375 118.601562 C 434.132812 116.15625 432.769531 113.742188 431.34375 111.363281 C 429.917969 108.984375 428.4375 106.640625 426.898438 104.335938 C 425.359375 102.027344 423.765625 99.761719 422.113281 97.535156 C 420.464844 95.304688 418.761719 93.121094 417.003906 90.976562 C 415.246094 88.832031 413.4375 86.734375 411.574219 84.679688 C 409.714844 82.621094 407.804688 80.613281 405.847656 78.652344 C 403.886719 76.691406 401.882812 74.78125 399.828125 72.917969 C 397.777344 71.054688 395.679688 69.242188 393.539062 67.484375 C 391.394531 65.722656 389.210938 64.019531 386.988281 62.367188 C 384.761719 60.714844 382.496094 59.117188 380.195312 57.578125 C 377.890625 56.035156 375.550781 54.550781 373.175781 53.125 C 370.796875 51.699219 368.386719 50.332031 365.945312 49.027344 C 363.5 47.71875 361.027344 46.472656 358.523438 45.285156 C 356.019531 44.101562 353.488281 42.976562 350.925781 41.914062 C 348.367188 40.855469 345.785156 39.855469 343.175781 38.921875 C 340.566406 37.988281 337.9375 37.117188 335.285156 36.3125 C 332.636719 35.507812 329.964844 34.765625 327.277344 34.09375 C 324.589844 33.417969 321.890625 32.8125 319.171875 32.269531 C 316.453125 31.730469 313.726562 31.257812 310.984375 30.847656 C 308.246094 30.441406 305.496094 30.101562 302.738281 29.832031 C 299.980469 29.558594 297.21875 29.355469 294.453125 29.21875 C 291.6875 29.082031 288.917969 29.015625 286.148438 29.015625 C 283.375 29.015625 280.609375 29.082031 277.839844 29.21875 C 275.074219 29.355469 272.3125 29.558594 269.554688 29.832031 C 266.796875 30.101562 264.046875 30.441406 261.308594 30.847656 C 258.566406 31.257812 255.839844 31.730469 253.121094 32.269531 C 250.40625 32.8125 247.703125 33.417969 245.015625 34.09375 C 242.328125 34.765625 239.660156 35.507812 237.007812 36.3125 C 234.355469 37.117188 231.726562 37.988281 229.117188 38.921875 C 226.507812 39.855469 223.925781 40.855469 221.367188 41.914062 C 218.808594 42.976562 216.273438 44.101562 213.769531 45.285156 C 211.265625 46.472656 208.792969 47.71875 206.347656 49.027344 C 203.90625 50.332031 201.496094 51.699219 199.121094 53.125 C 196.742188 54.550781 194.402344 56.035156 192.101562 57.578125 C 189.796875 59.117188 187.53125 60.714844 185.308594 62.367188 C 183.082031 64.019531 180.898438 65.722656 178.757812 67.484375 C 176.613281 69.242188 174.519531 71.054688 172.464844 72.917969 C 170.414062 74.78125 168.40625 76.691406 166.449219 78.652344 C 164.488281 80.613281 162.578125 82.621094 160.71875 84.679688 C 158.859375 86.734375 157.050781 88.832031 155.292969 90.976562 C 153.535156 93.121094 151.832031 95.304688 150.179688 97.535156 C 148.53125 99.761719 146.933594 102.027344 145.394531 104.335938 C 143.855469 106.640625 142.375 108.984375 140.949219 111.363281 C 139.527344 113.742188 138.160156 116.15625 136.855469 118.601562 C 135.550781 121.046875 134.304688 123.523438 133.121094 126.03125 C 131.933594 128.539062 130.8125 131.074219 129.753906 133.636719 C 128.691406 136.199219 127.695312 138.785156 126.761719 141.398438 C 125.828125 144.007812 124.960938 146.640625 124.15625 149.296875 C 123.351562 151.949219 122.613281 154.621094 121.941406 157.3125 C 121.265625 160.003906 120.660156 162.707031 120.121094 165.429688 C 119.578125 168.148438 119.105469 170.878906 118.699219 173.625 C 118.292969 176.367188 117.953125 179.121094 117.683594 181.878906 C 117.410156 184.640625 117.207031 187.40625 117.070312 190.175781 C 116.933594 192.945312 116.867188 195.71875 116.867188 198.492188 C 120.8125 292.410156 169.421875 387.070312 212.804688 453.347656 C 155.242188 450.253906 116.867188 443.742188 103.753906 437.980469 C 123.792969 431.433594 144.332031 427.484375 165.371094 426.132812 C 165.894531 426.054688 166.40625 425.925781 166.910156 425.753906 C 167.410156 425.582031 167.894531 425.363281 168.355469 425.097656 C 168.816406 424.835938 169.25 424.535156 169.65625 424.191406 C 170.0625 423.847656 170.429688 423.472656 170.769531 423.058594 C 171.105469 422.648438 171.398438 422.210938 171.65625 421.746094 C 171.910156 421.277344 172.121094 420.792969 172.289062 420.289062 C 172.453125 419.785156 172.574219 419.269531 172.644531 418.742188 C 172.714844 418.214844 172.738281 417.6875 172.710938 417.15625 C 172.683594 416.625 172.609375 416.101562 172.488281 415.582031 C 172.363281 415.066406 172.195312 414.566406 171.980469 414.078125 C 171.765625 413.59375 171.507812 413.132812 171.207031 412.695312 C 170.90625 412.253906 170.566406 411.847656 170.191406 411.472656 C 169.816406 411.097656 169.410156 410.757812 168.972656 410.457031 C 168.535156 410.15625 168.074219 409.898438 167.589844 409.683594 C 167.105469 409.46875 166.601562 409.296875 166.085938 409.175781 C 165.570312 409.050781 165.046875 408.976562 164.515625 408.949219 L 162.917969 408.949219 C 82.328125 418.128906 82.328125 431.253906 82.328125 438.300781 C 82.328125 448.972656 92.988281 458.042969 146.820312 465.195312 C 168.886719 468.183594 195.324219 470.316406 224 471.597656 C 243.292969 499.664062 260.351562 521.117188 270.261719 533.175781 C 230.15625 533.804688 190.464844 530.03125 151.191406 521.863281 C 173.589844 516.496094 196.296875 513.367188 219.308594 512.472656 C 219.796875 512.449219 220.28125 512.386719 220.757812 512.28125 C 221.234375 512.175781 221.699219 512.03125 222.152344 511.847656 C 222.605469 511.660156 223.035156 511.4375 223.453125 511.179688 C 223.867188 510.917969 224.253906 510.625 224.617188 510.296875 C 224.980469 509.972656 225.316406 509.617188 225.617188 509.234375 C 225.921875 508.847656 226.1875 508.441406 226.421875 508.011719 C 226.652344 507.582031 226.847656 507.132812 227.003906 506.671875 C 227.160156 506.207031 227.277344 505.734375 227.351562 505.25 C 227.425781 504.765625 227.457031 504.28125 227.449219 503.789062 C 227.441406 503.300781 227.390625 502.816406 227.300781 502.335938 C 227.207031 501.855469 227.074219 501.386719 226.902344 500.929688 C 226.730469 500.472656 226.519531 500.03125 226.269531 499.609375 C 226.023438 499.1875 225.742188 498.789062 225.425781 498.417969 C 225.109375 498.042969 224.761719 497.703125 224.386719 497.386719 C 224.011719 497.074219 223.613281 496.796875 223.191406 496.550781 C 222.765625 496.304688 222.324219 496.097656 221.867188 495.929688 C 220.84375 495.507812 219.777344 495.296875 218.667969 495.289062 C 127.738281 501.265625 127.738281 514.605469 127.738281 521.757812 C 127.738281 531.253906 136.480469 538.726562 179.121094 544.382812 C 214.527344 548.609375 250.0625 550.601562 285.71875 550.359375 C 321.558594 550.625 357.269531 548.632812 392.851562 544.382812 C 435.492188 538.726562 444.234375 531.253906 444.234375 521.757812 C 444.234375 514.605469 444.234375 501.265625 353.304688 495.289062 L 352.664062 495.289062 C 351.574219 495.296875 350.523438 495.503906 349.511719 495.90625 C 348.5 496.3125 347.597656 496.890625 346.800781 497.636719 C 346.039062 498.394531 345.425781 499.257812 344.96875 500.230469 C 344.507812 501.203125 344.234375 502.222656 344.136719 503.292969 C 344.101562 503.859375 344.121094 504.417969 344.191406 504.980469 C 344.265625 505.539062 344.394531 506.085938 344.574219 506.621094 C 344.757812 507.15625 344.988281 507.667969 345.269531 508.160156 C 345.550781 508.648438 345.875 509.105469 346.246094 509.53125 C 346.617188 509.957031 347.027344 510.34375 347.472656 510.6875 C 347.917969 511.035156 348.394531 511.332031 348.898438 511.585938 C 349.402344 511.835938 349.929688 512.039062 350.472656 512.1875 C 351.015625 512.335938 351.570312 512.433594 352.132812 512.472656 C 375.144531 513.367188 397.851562 516.496094 420.25 521.863281 C 380.976562 530.03125 341.285156 533.804688 301.175781 533.175781 C 311.089844 521.117188 328.148438 499.664062 347.441406 471.597656 Z M 245.851562 472.34375 C 258.859375 472.34375 272.183594 472.878906 285.71875 472.878906 C 299.257812 472.878906 312.582031 472.878906 325.589844 472.34375 C 308.425781 496.785156 293.609375 515.035156 285.71875 524.746094 C 277.726562 515.140625 263.546875 496.785156 245.851562 472.34375 Z M 285.71875 46.195312 C 288.207031 46.199219 290.691406 46.261719 293.171875 46.386719 C 295.65625 46.507812 298.132812 46.691406 300.609375 46.9375 C 303.082031 47.183594 305.546875 47.488281 308.007812 47.855469 C 310.464844 48.222656 312.914062 48.648438 315.351562 49.132812 C 317.789062 49.621094 320.214844 50.164062 322.625 50.769531 C 325.035156 51.375 327.429688 52.039062 329.808594 52.761719 C 332.1875 53.484375 334.546875 54.265625 336.886719 55.101562 C 339.226562 55.941406 341.546875 56.835938 343.84375 57.789062 C 346.140625 58.738281 348.410156 59.746094 350.660156 60.808594 C 352.90625 61.875 355.125 62.992188 357.320312 64.164062 C 359.511719 65.335938 361.675781 66.5625 363.808594 67.839844 C 365.941406 69.117188 368.039062 70.449219 370.109375 71.828125 C 372.175781 73.210938 374.207031 74.640625 376.207031 76.121094 C 378.203125 77.605469 380.164062 79.132812 382.085938 80.710938 C 384.007812 82.289062 385.890625 83.910156 387.734375 85.578125 C 389.578125 87.25 391.378906 88.964844 393.140625 90.722656 C 394.898438 92.480469 396.613281 94.277344 398.285156 96.121094 C 399.957031 97.960938 401.582031 99.84375 403.164062 101.765625 C 404.742188 103.6875 406.273438 105.648438 407.757812 107.644531 C 409.242188 109.640625 410.675781 111.671875 412.058594 113.738281 C 413.441406 115.808594 414.773438 117.90625 416.054688 120.039062 C 417.335938 122.171875 418.566406 124.335938 419.742188 126.527344 C 420.917969 128.71875 422.039062 130.941406 423.105469 133.1875 C 424.171875 135.4375 425.183594 137.707031 426.140625 140.003906 C 427.09375 142.304688 427.992188 144.621094 428.835938 146.964844 C 429.679688 149.304688 430.460938 151.664062 431.1875 154.046875 C 431.914062 156.425781 432.582031 158.820312 433.191406 161.234375 C 433.800781 163.648438 434.351562 166.074219 434.84375 168.511719 C 435.332031 170.953125 435.765625 173.402344 436.136719 175.863281 C 436.507812 178.324219 436.816406 180.792969 437.066406 183.269531 C 437.316406 185.746094 437.507812 188.226562 437.636719 190.710938 C 437.761719 193.195312 437.832031 195.683594 437.839844 198.171875 C 434.105469 292.410156 380.808594 389.632812 338.167969 454.839844 C 322.070312 455.375 304.695312 455.695312 286.253906 455.695312 C 267.8125 455.695312 250.4375 455.695312 234.339844 454.839844 C 190.742188 389.742188 138.398438 292.515625 134.136719 198.707031 C 134.132812 196.214844 134.191406 193.730469 134.3125 191.242188 C 134.433594 188.757812 134.613281 186.277344 134.855469 183.800781 C 135.097656 181.324219 135.398438 178.851562 135.761719 176.390625 C 136.121094 173.929688 136.542969 171.476562 137.027344 169.035156 C 137.507812 166.59375 138.050781 164.167969 138.652344 161.753906 C 139.253906 159.335938 139.910156 156.9375 140.628906 154.554688 C 141.347656 152.171875 142.125 149.808594 142.957031 147.464844 C 143.792969 145.121094 144.683594 142.800781 145.632812 140.5 C 146.578125 138.199219 147.582031 135.921875 148.640625 133.671875 C 149.699219 131.417969 150.8125 129.195312 151.980469 126.996094 C 153.148438 124.800781 154.371094 122.632812 155.644531 120.496094 C 156.917969 118.359375 158.242188 116.253906 159.621094 114.183594 C 160.996094 112.113281 162.421875 110.074219 163.898438 108.074219 C 165.375 106.070312 166.902344 104.105469 168.472656 102.179688 C 170.046875 100.25 171.664062 98.363281 173.328125 96.515625 C 174.996094 94.667969 176.703125 92.863281 178.457031 91.097656 C 180.210938 89.332031 182.007812 87.613281 183.84375 85.9375 C 185.679688 84.261719 187.558594 82.632812 189.476562 81.046875 C 191.394531 79.464844 193.347656 77.929688 195.339844 76.441406 C 197.332031 74.953125 199.359375 73.515625 201.421875 72.125 C 203.484375 70.738281 205.582031 69.398438 207.710938 68.113281 C 209.839844 66.828125 211.996094 65.59375 214.183594 64.414062 C 216.375 63.234375 218.589844 62.109375 220.832031 61.039062 C 223.078125 59.96875 225.34375 58.953125 227.636719 57.992188 C 229.933594 57.03125 232.246094 56.128906 234.585938 55.28125 C 236.921875 54.433594 239.277344 53.648438 241.65625 52.914062 C 244.03125 52.183594 246.425781 51.511719 248.832031 50.898438 C 251.242188 50.285156 253.664062 49.730469 256.101562 49.238281 C 258.535156 48.742188 260.984375 48.308594 263.441406 47.933594 C 265.898438 47.558594 268.363281 47.242188 270.835938 46.992188 C 273.308594 46.738281 275.785156 46.542969 278.269531 46.410156 C 280.75 46.277344 283.234375 46.207031 285.71875 46.195312 Z M 285.71875 46.195312 " fill-opacity="1" fill-rule="nonzero"/></g></svg>