<svg xmlns="http://www.w3.org/2000/svg" xmlns:xlink="http://www.w3.org/1999/xlink" width="762" zoomAndPan="magnify" viewBox="0 0 571.5 571.499966" height="762" preserveAspectRatio="xMidYMid meet" version="1.0"><defs><clipPath id="15b9b4f18c"><path d="M 110 48.015625 L 459 48.015625 L 459 523.097656 L 110 523.097656 Z M 110 48.015625 " clip-rule="nonzero"/></clipPath></defs><g clip-path="url(#15b9b4f18c)"><path fill="#040606" d="M 363.84375 443.917969 C 360.566406 446.734375 355.625 446.332031 352.8125 443.082031 L 337.457031 425.144531 C 334.613281 421.804688 329.640625 421.433594 326.300781 424.277344 C 322.996094 427.125 322.59375 432.132812 325.4375 435.445312 L 340.792969 453.382812 C 343.605469 456.660156 343.234375 461.578125 339.957031 464.394531 C 336.683594 467.179688 331.769531 466.839844 328.929688 463.558594 L 318.699219 451.589844 C 315.859375 448.28125 310.851562 447.910156 307.546875 450.753906 C 304.210938 453.601562 303.839844 458.578125 306.679688 461.890625 L 316.910156 473.859375 C 319.71875 477.136719 319.351562 482.085938 316.042969 484.902344 C 314.46875 486.261719 312.398438 486.878906 310.390625 486.757812 C 308.320312 486.601562 306.402344 485.644531 305.042969 484.066406 L 299.945312 478.066406 C 297.074219 474.757812 292.097656 474.386719 288.761719 477.230469 C 285.453125 480.046875 285.082031 485.054688 287.894531 488.363281 L 293.023438 494.367188 C 294.382812 495.941406 295.03125 497.921875 294.816406 500.179688 C 294.691406 502.191406 293.765625 504.046875 292.160156 505.40625 C 290.613281 506.769531 288.605469 507.417969 286.503906 507.234375 C 284.402344 507.078125 282.519531 506.117188 281.160156 504.542969 L 269.976562 491.519531 C 274.824219 483.078125 274.175781 472.21875 267.503906 464.425781 C 263.546875 459.816406 258.203125 457.1875 252.640625 456.445312 C 252.765625 450.601562 250.878906 444.96875 247.046875 440.515625 C 243.09375 435.90625 237.75 433.277344 232.15625 432.535156 C 232.277344 426.90625 230.488281 421.214844 226.5625 416.578125 C 222.609375 412 217.261719 409.371094 211.671875 408.628906 C 211.824219 403 210.03125 397.277344 206.078125 392.699219 C 199.464844 384.90625 188.867188 382.617188 179.84375 386.019531 L 173.914062 378.902344 L 243.527344 319.117188 L 261.941406 323.972656 L 231.628906 349.984375 C 221.710938 358.492188 220.570312 373.429688 229.066406 383.328125 C 233.730469 388.800781 240.34375 391.617188 247.019531 391.617188 C 252.457031 391.617188 257.957031 389.730469 262.375 385.894531 L 298.183594 355.179688 L 364.675781 432.875 C 366.035156 434.453125 366.683594 436.433594 366.5 438.691406 C 366.375 440.703125 365.417969 442.558594 363.84375 443.917969 Z M 243.617188 484.902344 C 240.808594 481.621094 241.207031 476.671875 244.484375 473.859375 C 245.9375 472.621094 247.757812 471.972656 249.550781 471.972656 C 251.746094 471.972656 253.96875 472.929688 255.515625 474.726562 C 258.296875 478.003906 257.925781 482.953125 254.648438 485.765625 C 251.375 488.550781 246.429688 488.179688 243.617188 484.902344 Z M 224 449.949219 C 225.449219 448.714844 227.273438 448.0625 229.066406 448.0625 C 231.289062 448.0625 233.484375 449.023438 235.027344 450.816406 C 236.390625 452.394531 237.039062 454.402344 236.882812 456.507812 C 236.730469 458.578125 235.769531 460.496094 234.195312 461.859375 C 232.589844 463.21875 230.519531 463.867188 228.480469 463.714844 C 226.410156 463.558594 224.492188 462.570312 223.132812 460.992188 C 220.351562 457.714844 220.722656 452.765625 224 449.949219 Z M 200.824219 431.390625 C 200.980469 429.320312 201.9375 427.402344 203.511719 426.042969 C 204.996094 424.804688 206.789062 424.183594 208.613281 424.183594 C 210.804688 424.183594 213 425.082031 214.542969 426.875 C 217.355469 430.1875 216.984375 435.132812 213.679688 437.949219 C 212.101562 439.28125 210.0625 439.929688 208.023438 439.804688 C 205.921875 439.652344 204.039062 438.691406 202.679688 437.082031 C 201.320312 435.507812 200.671875 433.464844 200.824219 431.390625 Z M 183.058594 402.132812 C 184.511719 400.863281 186.335938 400.246094 188.125 400.246094 C 190.351562 400.246094 192.542969 401.171875 194.089844 403 C 196.871094 406.246094 196.5 411.226562 193.222656 414.007812 C 189.949219 416.824219 185.003906 416.453125 182.195312 413.175781 C 179.414062 409.894531 179.785156 404.945312 183.058594 402.132812 Z M 126.761719 336.375 L 213.679688 261.804688 L 244.296875 297.589844 L 244.296875 297.621094 L 157.445312 372.160156 Z M 158.402344 119.277344 L 197.953125 119.277344 C 206.664062 119.277344 213.769531 112.164062 213.769531 103.441406 L 213.769531 63.851562 L 411.519531 63.851562 L 411.519531 293.910156 L 375.214844 251.503906 C 369.527344 244.882812 359.515625 244.109375 352.90625 249.769531 L 317.15625 280.484375 C 311.285156 285.527344 310.019531 293.9375 313.757812 300.433594 L 295.21875 301.640625 C 290.152344 301.980469 285.238281 303.992188 281.375 307.269531 L 276.523438 311.445312 L 257.367188 306.402344 C 258.882812 304.144531 259.871094 301.609375 260.085938 298.828125 C 260.425781 294.621094 259.066406 290.507812 256.316406 287.289062 L 225.730469 251.503906 C 220.042969 244.882812 210.03125 244.109375 203.421875 249.769531 L 158.402344 288.402344 Z M 197.953125 75.046875 L 197.953125 103.441406 L 169.585938 103.441406 Z M 443.15625 355.148438 L 407.378906 385.769531 L 327.445312 292.515625 L 363.195312 261.835938 Z M 310.171875 344.882812 C 313.480469 342.035156 313.851562 337.085938 311.007812 333.746094 C 308.164062 330.4375 303.160156 330.066406 299.851562 332.910156 L 293.890625 338.046875 C 293.890625 338.046875 293.890625 338.046875 293.859375 338.046875 L 252.085938 373.894531 C 248.808594 376.707031 243.867188 376.304688 241.054688 373.027344 C 238.242188 369.78125 238.644531 364.832031 241.917969 362.015625 L 291.664062 319.300781 C 292.960938 318.1875 294.539062 317.539062 296.238281 317.445312 L 326.269531 315.496094 L 390.261719 390.132812 L 366.4375 410.578125 Z M 402.25 400.710938 C 403.515625 401.144531 404.8125 401.484375 406.171875 401.605469 C 406.605469 401.605469 407.007812 401.636719 407.441406 401.636719 C 411.210938 401.636719 414.792969 400.308594 417.699219 397.832031 L 453.445312 367.179688 C 460.058594 361.519531 460.832031 351.5 455.175781 344.851562 L 427.339844 312.375 L 427.339844 63.851562 C 427.339844 55.128906 420.230469 48.015625 411.519531 48.015625 L 209.136719 48.015625 C 204.964844 48.015625 200.886719 49.714844 197.953125 52.65625 L 147.21875 103.441406 C 144.28125 106.378906 142.582031 110.460938 142.582031 114.636719 L 142.582031 301.980469 L 116.472656 324.375 C 109.863281 330.035156 109.089844 340.054688 114.742188 346.707031 L 145.425781 382.492188 C 148.578125 386.140625 153.027344 387.996094 157.476562 387.996094 C 158.527344 387.996094 159.578125 387.875 160.625 387.65625 L 167.765625 396.253906 C 162.882812 404.699219 163.5 415.648438 170.207031 423.472656 C 174.128906 428.082031 179.476562 430.679688 185.066406 431.390625 C 184.914062 437.269531 186.828125 442.898438 190.660156 447.382812 C 194.492188 451.867188 199.742188 454.621094 205.550781 455.363281 C 205.429688 460.992188 207.191406 466.683594 211.144531 471.292969 C 214.976562 475.777344 220.230469 478.5 226.007812 479.273438 C 225.882812 484.902344 227.675781 490.59375 231.628906 495.199219 C 236.265625 500.675781 242.90625 503.460938 249.582031 503.460938 C 252.457031 503.460938 255.296875 502.902344 258.015625 501.882812 L 269.140625 514.839844 C 273.25 519.636719 278.964844 522.542969 285.269531 523.039062 C 285.886719 523.070312 286.535156 523.097656 287.152344 523.097656 C 292.777344 523.097656 298.152344 521.121094 302.480469 517.410156 C 306.992188 513.542969 309.832031 508.253906 310.480469 502.625 C 316.476562 502.65625 321.914062 500.738281 326.363281 496.933594 C 330.9375 493.003906 333.65625 487.683594 334.398438 482.117188 C 340.082031 482.242188 345.675781 480.355469 350.246094 476.425781 C 354.820312 472.5 357.539062 467.179688 358.28125 461.609375 C 363.59375 461.671875 369.558594 459.847656 374.132812 455.949219 C 378.984375 451.742188 381.886719 445.992188 382.257812 439.867188 C 382.8125 433.589844 380.867188 427.464844 376.726562 422.609375 L 402.25 400.710938 " fill-opacity="1" fill-rule="nonzero"/></g><path fill="#040606" d="M 192.359375 172.382812 C 193.84375 173.871094 195.851562 174.703125 197.953125 174.703125 C 198.136719 174.703125 198.324219 174.703125 198.507812 174.671875 C 200.792969 174.519531 202.894531 173.375 204.285156 171.519531 L 228.015625 139.847656 C 230.640625 136.351562 229.929688 131.402344 226.410156 128.773438 C 222.949219 126.144531 217.972656 126.855469 215.347656 130.382812 L 197.085938 154.722656 L 195.632812 153.269531 C 192.542969 150.175781 187.539062 150.175781 184.449219 153.269531 C 181.359375 156.363281 181.359375 161.375 184.449219 164.464844 L 192.359375 172.382812 " fill-opacity="1" fill-rule="nonzero"/><path fill="#040606" d="M 300.78125 143.03125 L 379.878906 143.03125 C 384.234375 143.03125 387.789062 139.476562 387.789062 135.113281 C 387.789062 130.753906 384.234375 127.195312 379.878906 127.195312 L 300.78125 127.195312 C 296.421875 127.195312 292.871094 130.753906 292.871094 135.113281 C 292.871094 139.476562 296.421875 143.03125 300.78125 143.03125 " fill-opacity="1" fill-rule="nonzero"/><path fill="#040606" d="M 261.230469 143.03125 L 269.140625 143.03125 C 273.496094 143.03125 277.050781 139.476562 277.050781 135.113281 C 277.050781 130.753906 273.496094 127.195312 269.140625 127.195312 L 261.230469 127.195312 C 256.875 127.195312 253.320312 130.753906 253.320312 135.113281 C 253.320312 139.476562 256.875 143.03125 261.230469 143.03125 " fill-opacity="1" fill-rule="nonzero"/><path fill="#040606" d="M 261.230469 174.703125 L 316.601562 174.703125 C 320.957031 174.703125 324.507812 171.148438 324.507812 166.785156 C 324.507812 162.425781 320.957031 158.867188 316.601562 158.867188 L 261.230469 158.867188 C 256.875 158.867188 253.320312 162.425781 253.320312 166.785156 C 253.320312 171.148438 256.875 174.703125 261.230469 174.703125 " fill-opacity="1" fill-rule="nonzero"/><path fill="#040606" d="M 228.015625 203.191406 C 230.640625 199.695312 229.929688 194.746094 226.410156 192.117188 C 222.949219 189.488281 217.972656 190.199219 215.347656 193.726562 L 197.085938 218.066406 L 195.632812 216.613281 C 192.542969 213.523438 187.539062 213.523438 184.449219 216.613281 C 181.359375 219.707031 181.359375 224.71875 184.449219 227.8125 L 192.359375 235.730469 C 193.84375 237.214844 195.851562 238.050781 197.953125 238.050781 C 198.136719 238.050781 198.324219 238.050781 198.507812 238.019531 C 200.792969 237.863281 202.894531 236.71875 204.285156 234.863281 L 228.015625 203.191406 " fill-opacity="1" fill-rule="nonzero"/><path fill="#040606" d="M 379.878906 190.539062 L 300.78125 190.539062 C 296.421875 190.539062 292.871094 194.097656 292.871094 198.457031 C 292.871094 202.820312 296.421875 206.375 300.78125 206.375 L 379.878906 206.375 C 384.234375 206.375 387.789062 202.820312 387.789062 198.457031 C 387.789062 194.097656 384.234375 190.539062 379.878906 190.539062 " fill-opacity="1" fill-rule="nonzero"/><path fill="#040606" d="M 261.230469 206.375 L 269.140625 206.375 C 273.496094 206.375 277.050781 202.820312 277.050781 198.457031 C 277.050781 194.097656 273.496094 190.539062 269.140625 190.539062 L 261.230469 190.539062 C 256.875 190.539062 253.320312 194.097656 253.320312 198.457031 C 253.320312 202.820312 256.875 206.375 261.230469 206.375 " fill-opacity="1" fill-rule="nonzero"/><path fill="#040606" d="M 261.230469 238.050781 L 316.601562 238.050781 C 320.957031 238.050781 324.507812 234.492188 324.507812 230.132812 C 324.507812 225.769531 320.957031 222.210938 316.601562 222.210938 L 261.230469 222.210938 C 256.875 222.210938 253.320312 225.769531 253.320312 230.132812 C 253.320312 234.492188 256.875 238.050781 261.230469 238.050781 " fill-opacity="1" fill-rule="nonzero"/></svg>