<svg xmlns="http://www.w3.org/2000/svg" xmlns:xlink="http://www.w3.org/1999/xlink" width="762" zoomAndPan="magnify" viewBox="0 0 571.5 571.499966" height="762" preserveAspectRatio="xMidYMid meet" version="1.0"><path fill="#6fd340" d="M 492.820312 263.042969 C 492.597656 368.695312 423.222656 452.5625 324.148438 468.253906 C 293.632812 473.085938 262.445312 473.753906 233.710938 458.066406 C 227.609375 454.71875 223.214844 457.695312 218.453125 460.890625 C 195.972656 475.910156 173.417969 490.78125 150.867188 505.652344 C 145.878906 508.921875 140.742188 512.195312 135.457031 514.945312 C 127.863281 518.960938 119.902344 524.015625 111.414062 517.992188 C 102.257812 511.523438 105.089844 502.082031 106.949219 493.234375 C 112.902344 464.683594 119.378906 436.132812 130.023438 408.996094 C 135.828125 394.199219 134.117188 383.34375 125.558594 370.183594 C 76.953125 295.238281 83.726562 195.085938 142.230469 127.355469 C 191.359375 70.476562 254.253906 46.832031 328.09375 61.332031 C 404.6875 76.347656 454.859375 124.378906 481.582031 197.019531 C 489.769531 219.324219 493.339844 242.597656 492.820312 263.042969 Z M 134.5625 482.898438 C 135.382812 483.644531 136.203125 484.386719 137.019531 485.128906 C 158.457031 471.078125 180.117188 457.25 201.183594 442.75 C 211.753906 435.464844 221.652344 433.308594 234.828125 436.503906 C 264.007812 443.714844 293.78125 448.328125 324 442.601562 C 431.707031 422.453125 494.902344 309.066406 456.199219 203.117188 C 432.230469 137.539062 385.335938 95.679688 315.738281 84.972656 C 249.714844 74.789062 194.632812 98.207031 153.769531 151.292969 C 106.800781 212.335938 104.492188 298.210938 147.515625 369.144531 C 155.183594 381.78125 156.597656 393.53125 153.246094 406.988281 C 146.996094 432.265625 140.742188 457.621094 134.5625 482.898438 Z M 134.5625 482.898438 " fill-opacity="1" fill-rule="nonzero"/><path fill="#6fd340" d="M 198.058594 210.402344 C 198.503906 197.316406 201.855469 184.902344 208.179688 173.601562 C 217.113281 157.539062 232.148438 155.832031 244.800781 168.839844 C 252.320312 176.5 259.019531 184.828125 264.675781 193.972656 C 271.746094 205.496094 273.90625 216.945312 265.496094 228.769531 C 260.507812 235.757812 262.21875 242.597656 266.390625 249.140625 C 275.46875 263.265625 286.039062 276.203125 298.394531 287.578125 C 307.773438 296.203125 318.640625 296.425781 329.210938 289.808594 C 340.003906 283.117188 350.5 280.292969 361.070312 289.511719 C 373.796875 300.589844 386.898438 312.042969 383.773438 331.371094 C 381.6875 344.234375 371.042969 350.40625 360.25 354.792969 C 331.59375 366.464844 304.054688 362.003906 280.085938 343.640625 C 242.421875 314.71875 216.816406 276.648438 201.035156 231.964844 C 198.578125 225.050781 197.683594 217.839844 198.058594 210.402344 Z M 198.058594 210.402344 " fill-opacity="1" fill-rule="nonzero"/><path fill="#6fd340" d="M 426.648438 224.53125 C 416.375 220.960938 410.792969 213.082031 406.921875 203.785156 C 394.417969 173.601562 375.734375 148.765625 346.703125 132.410156 C 343.207031 130.476562 337.996094 128.246094 340.378906 122.816406 C 342.535156 117.910156 347.820312 119.175781 351.839844 119.917969 C 366.652344 122.742188 379.007812 130.328125 389.800781 140.515625 C 406.921875 156.722656 419.425781 175.980469 427.242188 198.210938 C 430.292969 206.984375 431.261719 215.609375 426.648438 224.457031 Z M 426.648438 224.53125 " fill-opacity="1" fill-rule="nonzero"/><path fill="#6fd340" d="M 446.074219 271 C 445.628906 276.722656 444.4375 282.152344 437.738281 281.855469 C 431.410156 281.558594 429.699219 276.128906 429.625 270.777344 C 429.625 265.71875 429.402344 259.179688 436.101562 258.804688 C 443.839844 258.359375 444.808594 265.421875 446.074219 271 Z M 446.074219 271 " fill-opacity="1" fill-rule="nonzero"/></svg>